<svg width="327" height="72" viewBox="0 0 327 72" fill="none" xmlns="http://www.w3.org/2000/svg">
<rect width="327" height="72" rx="8" fill="#FBEDFD"/>
<path d="M20 26.2745C20 22.8092 22.8092 20 26.2745 20H45.7255C49.1908 20 52 22.8092 52 26.2745V45.7255C52 49.1908 49.1908 52 45.7255 52H26.2745C22.8092 52 20 49.1908 20 45.7255V26.2745Z" fill="#CB26E6"/>
<path fill-rule="evenodd" clip-rule="evenodd" d="M36.4281 45.8333C34.4416 45.8333 32.7176 45.3963 31.2563 44.5222C29.7949 43.6251 28.6646 42.429 27.8654 40.9339C27.0662 39.4388 26.6667 37.7826 26.6667 35.9655C26.6667 34.0793 27.0777 32.4002 27.8997 30.928C28.7445 29.4559 29.8748 28.2943 31.2905 27.4432C32.7062 26.5922 34.3046 26.1666 36.0856 26.1666C37.5698 26.1666 38.8828 26.4081 40.0245 26.8912C41.1661 27.3512 42.1252 28.0068 42.9015 28.8578C43.7007 29.7089 44.3058 30.698 44.7168 31.8251C45.1278 32.9292 45.3333 34.1368 45.3333 35.4479C45.3333 35.8159 45.3105 36.184 45.2648 36.552C45.242 36.897 45.1849 37.1961 45.0936 37.4491H31.9956C32.0568 37.9312 32.1758 38.3798 32.3523 38.7947C32.6948 39.5998 33.22 40.2323 33.9278 40.6924C34.6357 41.1294 35.4919 41.3479 36.4966 41.3479C37.41 41.3479 38.1863 41.1639 38.8257 40.7959C39.4879 40.4278 40.0016 39.9218 40.367 39.2777L44.4771 41.2444C44.1117 42.1645 43.5294 42.9696 42.7303 43.6596C41.9539 44.3497 41.0291 44.8902 39.956 45.2812C38.8828 45.6493 37.7068 45.8333 36.4281 45.8333ZM32.3844 29.8646C32.1986 29.8646 32.048 30.0152 32.048 30.2008C32.048 30.3865 32.1986 30.537 32.3844 30.537H39.7838C39.9695 30.537 40.1201 30.3865 40.1201 30.2008C40.1201 30.0152 39.9695 29.8646 39.7838 29.8646H32.3844ZM32.048 32.3861C32.048 32.2005 32.1986 32.0499 32.3844 32.0499H39.7838C39.9695 32.0499 40.1201 32.2005 40.1201 32.3861C40.1201 32.5718 39.9695 32.7223 39.7838 32.7223H32.3844C32.1986 32.7223 32.048 32.5718 32.048 32.3861ZM32.3844 34.4032C32.1986 34.4032 32.048 34.5537 32.048 34.7394C32.048 34.9251 32.1986 35.0756 32.3844 35.0756H39.7838C39.9695 35.0756 40.1201 34.9251 40.1201 34.7394C40.1201 34.5537 39.9695 34.4032 39.7838 34.4032H32.3844Z" fill="white"/>
<path d="M67.2074 45.382C65.7946 45.382 64.5685 45.0734 63.5292 44.4563C62.4899 43.823 61.6861 42.9786 61.1177 41.923C60.5493 40.8675 60.2651 39.6982 60.2651 38.4153C60.2651 37.0837 60.5574 35.8983 61.1421 34.8589C61.7429 33.8196 62.5467 32.9996 63.5536 32.3987C64.5604 31.7979 65.6972 31.4974 66.9638 31.4974C68.0194 31.4974 68.9531 31.6679 69.7651 32.009C70.577 32.3338 71.2591 32.7966 71.8112 33.3974C72.3796 33.9983 72.8099 34.6966 73.1022 35.4923C73.3945 36.2718 73.5407 37.1243 73.5407 38.05C73.5407 38.3098 73.5245 38.5696 73.492 38.8294C73.4757 39.073 73.4351 39.2841 73.3702 39.4628H63.4074V36.7833H71.2997L69.5702 38.05C69.7326 37.3517 69.7245 36.7346 69.5458 36.1987C69.3672 35.6466 69.0506 35.2162 68.5959 34.9077C68.1574 34.5829 67.6134 34.4205 66.9638 34.4205C66.3305 34.4205 65.7865 34.5748 65.3318 34.8833C64.8771 35.1919 64.5361 35.6466 64.3087 36.2474C64.0814 36.8483 63.992 37.579 64.0408 38.4397C63.9758 39.1867 64.0651 39.8444 64.3087 40.4128C64.5523 40.9811 64.9258 41.4277 65.4292 41.7525C65.9326 42.061 66.5416 42.2153 67.2561 42.2153C67.9057 42.2153 68.4578 42.0854 68.9125 41.8256C69.3835 41.5657 69.7488 41.2085 70.0087 40.7538L72.9317 42.1422C72.6719 42.7918 72.2578 43.3602 71.6894 43.8474C71.1373 44.3345 70.4796 44.7162 69.7164 44.9922C68.9531 45.252 68.1168 45.382 67.2074 45.382Z" fill="black"/>
<path d="M75.9602 45.0897V26.9423H79.7358V41.8012H87.4089V45.0897H75.9602Z" fill="black"/>
<path d="M95.6147 45.382C94.2994 45.382 93.0977 45.0815 92.0096 44.4807C90.9378 43.8798 90.0772 43.0598 89.4276 42.0204C88.7943 40.9649 88.4776 39.7713 88.4776 38.4397C88.4776 37.0918 88.7943 35.8983 89.4276 34.8589C90.0772 33.8196 90.9378 32.9996 92.0096 32.3987C93.0977 31.7979 94.2994 31.4974 95.6147 31.4974C96.9301 31.4974 98.1237 31.7979 99.1955 32.3987C100.267 32.9996 101.12 33.8196 101.753 34.8589C102.403 35.8983 102.728 37.0918 102.728 38.4397C102.728 39.7713 102.403 40.9649 101.753 42.0204C101.12 43.0598 100.267 43.8798 99.1955 44.4807C98.1237 45.0815 96.9301 45.382 95.6147 45.382ZM95.6147 42.0935C96.2805 42.0935 96.857 41.9392 97.3442 41.6307C97.8476 41.3222 98.2374 40.8918 98.5134 40.3397C98.8057 39.7875 98.9519 39.1542 98.9519 38.4397C98.9519 37.7252 98.8057 37.1 98.5134 36.5641C98.2374 36.0119 97.8476 35.5816 97.3442 35.273C96.857 34.9483 96.2805 34.7859 95.6147 34.7859C94.9489 34.7859 94.3643 34.9483 93.8609 35.273C93.3575 35.5816 92.9596 36.0119 92.6673 36.5641C92.3913 37.1 92.2532 37.7252 92.2532 38.4397C92.2532 39.1542 92.3913 39.7875 92.6673 40.3397C92.9596 40.8918 93.3575 41.3222 93.8609 41.6307C94.3643 41.9392 94.9489 42.0935 95.6147 42.0935Z" fill="black"/>
<path d="M111.408 50.4486C110.385 50.4486 109.435 50.2781 108.558 49.9371C107.681 49.596 106.926 49.117 106.293 48.4999C105.676 47.899 105.229 47.1845 104.953 46.3563L108.339 45.1627C108.518 45.7798 108.883 46.267 109.435 46.6243C109.987 46.9815 110.645 47.1602 111.408 47.1602C112.009 47.1602 112.529 47.0465 112.967 46.8191C113.406 46.608 113.739 46.2914 113.966 45.8691C114.209 45.4469 114.331 44.9516 114.331 44.3832V41.3384L115.038 42.2153C114.583 42.9623 113.998 43.5226 113.284 43.8961C112.569 44.2533 111.733 44.432 110.775 44.432C109.541 44.432 108.436 44.1559 107.462 43.6038C106.488 43.0354 105.724 42.264 105.172 41.2897C104.62 40.2991 104.344 39.1786 104.344 37.9282C104.344 36.6777 104.62 35.5735 105.172 34.6154C105.724 33.641 106.48 32.8778 107.438 32.3256C108.396 31.7735 109.484 31.4974 110.702 31.4974C111.66 31.4974 112.496 31.6923 113.211 32.082C113.925 32.4555 114.534 33.032 115.038 33.8115L114.575 34.6884V31.7897H117.985V44.3832C117.985 45.5525 117.701 46.5918 117.133 47.5012C116.564 48.4268 115.785 49.1495 114.794 49.6691C113.82 50.1888 112.691 50.4486 111.408 50.4486ZM111.286 41.1192C111.903 41.1192 112.439 40.9893 112.894 40.7294C113.349 40.4696 113.698 40.1042 113.942 39.6333C114.201 39.1623 114.331 38.6102 114.331 37.9769C114.331 37.3435 114.201 36.7914 113.942 36.3205C113.682 35.8333 113.324 35.4598 112.87 35.2C112.415 34.9239 111.887 34.7859 111.286 34.7859C110.669 34.7859 110.117 34.9239 109.63 35.2C109.159 35.4598 108.786 35.8333 108.51 36.3205C108.25 36.7914 108.12 37.3435 108.12 37.9769C108.12 38.594 108.25 39.138 108.51 39.6089C108.786 40.0799 109.159 40.4534 109.63 40.7294C110.117 40.9893 110.669 41.1192 111.286 41.1192Z" fill="black"/>
<path d="M128.129 45.382C127.22 45.382 126.375 45.2196 125.596 44.8948C124.832 44.5538 124.215 44.0585 123.744 43.4089L124.085 42.6538V45.0897H120.675V26.65H124.329V34.3231L123.769 33.5923C124.207 32.9265 124.8 32.4149 125.547 32.0577C126.31 31.6842 127.179 31.4974 128.153 31.4974C129.42 31.4974 130.565 31.806 131.588 32.4231C132.611 33.0402 133.423 33.8765 134.024 34.932C134.625 35.9713 134.925 37.1406 134.925 38.4397C134.925 39.7226 134.625 40.8918 134.024 41.9474C133.439 43.0029 132.635 43.8392 131.612 44.4563C130.589 45.0734 129.428 45.382 128.129 45.382ZM127.691 42.0935C128.373 42.0935 128.973 41.9392 129.493 41.6307C130.013 41.3222 130.419 40.8918 130.711 40.3397C131.003 39.7875 131.15 39.1542 131.15 38.4397C131.15 37.7252 131.003 37.1 130.711 36.5641C130.419 36.0119 130.013 35.5816 129.493 35.273C128.973 34.9483 128.373 34.7859 127.691 34.7859C127.041 34.7859 126.456 34.9401 125.937 35.2487C125.433 35.5572 125.035 35.9876 124.743 36.5397C124.467 37.0918 124.329 37.7252 124.329 38.4397C124.329 39.1542 124.467 39.7875 124.743 40.3397C125.035 40.8918 125.433 41.3222 125.937 41.6307C126.456 41.9392 127.041 42.0935 127.691 42.0935Z" fill="black"/>
<path d="M143.666 45.382C142.351 45.382 141.149 45.0815 140.061 44.4807C138.989 43.8798 138.129 43.0598 137.479 42.0204C136.846 40.9649 136.529 39.7713 136.529 38.4397C136.529 37.0918 136.846 35.8983 137.479 34.8589C138.129 33.8196 138.989 32.9996 140.061 32.3987C141.149 31.7979 142.351 31.4974 143.666 31.4974C144.982 31.4974 146.175 31.7979 147.247 32.3987C148.319 32.9996 149.171 33.8196 149.805 34.8589C150.454 35.8983 150.779 37.0918 150.779 38.4397C150.779 39.7713 150.454 40.9649 149.805 42.0204C149.171 43.0598 148.319 43.8798 147.247 44.4807C146.175 45.0815 144.982 45.382 143.666 45.382ZM143.666 42.0935C144.332 42.0935 144.909 41.9392 145.396 41.6307C145.899 41.3222 146.289 40.8918 146.565 40.3397C146.857 39.7875 147.003 39.1542 147.003 38.4397C147.003 37.7252 146.857 37.1 146.565 36.5641C146.289 36.0119 145.899 35.5816 145.396 35.273C144.909 34.9483 144.332 34.7859 143.666 34.7859C143.001 34.7859 142.416 34.9483 141.912 35.273C141.409 35.5816 141.011 36.0119 140.719 36.5641C140.443 37.1 140.305 37.7252 140.305 38.4397C140.305 39.1542 140.443 39.7875 140.719 40.3397C141.011 40.8918 141.409 41.3222 141.912 41.6307C142.416 41.9392 143.001 42.0935 143.666 42.0935Z" fill="black"/>
<path d="M159.533 45.382C158.217 45.382 157.016 45.0815 155.928 44.4807C154.856 43.8798 153.995 43.0598 153.346 42.0204C152.712 40.9649 152.396 39.7713 152.396 38.4397C152.396 37.0918 152.712 35.8983 153.346 34.8589C153.995 33.8196 154.856 32.9996 155.928 32.3987C157.016 31.7979 158.217 31.4974 159.533 31.4974C160.848 31.4974 162.042 31.7979 163.114 32.3987C164.185 32.9996 165.038 33.8196 165.671 34.8589C166.321 35.8983 166.646 37.0918 166.646 38.4397C166.646 39.7713 166.321 40.9649 165.671 42.0204C165.038 43.0598 164.185 43.8798 163.114 44.4807C162.042 45.0815 160.848 45.382 159.533 45.382ZM159.533 42.0935C160.199 42.0935 160.775 41.9392 161.262 41.6307C161.766 41.3222 162.156 40.8918 162.432 40.3397C162.724 39.7875 162.87 39.1542 162.87 38.4397C162.87 37.7252 162.724 37.1 162.432 36.5641C162.156 36.0119 161.766 35.5816 161.262 35.273C160.775 34.9483 160.199 34.7859 159.533 34.7859C158.867 34.7859 158.282 34.9483 157.779 35.273C157.276 35.5816 156.878 36.0119 156.585 36.5641C156.309 37.1 156.171 37.7252 156.171 38.4397C156.171 39.1542 156.309 39.7875 156.585 40.3397C156.878 40.8918 157.276 41.3222 157.779 41.6307C158.282 41.9392 158.867 42.0935 159.533 42.0935Z" fill="black"/>
<path d="M168.798 45.0897V26.65H172.452V38.4641L171.088 38.0256L176.958 31.7897H181.465L176.642 37.1487L181.44 45.0897H177.299L173.28 38.3423L175.399 37.8064L171.331 42.2397L172.452 40.1205V45.0897H168.798Z" fill="black"/>
<mask id="mask0_8_1399" style="mask-type:alpha" maskUnits="userSpaceOnUse" x="0" y="0" width="327" height="72">
<rect width="327" height="72" rx="8" fill="#FBEDFD"/>
</mask>
<g mask="url(#mask0_8_1399)">
<path fill-rule="evenodd" clip-rule="evenodd" d="M292.727 97.3091C281.202 103.053 269.932 105.492 258.916 104.626C247.833 103.626 237.804 99.9263 228.826 93.5278C219.849 87.1293 212.723 78.6375 207.448 68.0524C201.972 57.0653 199.481 46.0957 199.977 35.1436C200.604 24.1255 203.789 14.091 209.532 5.04005C215.274 -4.01091 223.312 -11.1113 233.644 -16.261C242.255 -20.5524 250.573 -22.9418 258.599 -23.4292C266.558 -24.0505 274.025 -23.0048 281 -20.2919C288.108 -17.6451 294.49 -13.6332 300.146 -8.25612C305.736 -3.01307 310.434 3.42718 314.241 11.0645C315.309 13.2084 316.245 15.4182 317.048 17.6941C317.918 19.7699 318.455 21.6769 318.659 23.4148L242.671 61.2866C244.426 63.9179 246.418 66.1869 248.647 68.0935C252.971 71.7928 257.854 73.959 263.296 74.592C268.672 75.0912 274.274 73.8882 280.103 70.9832C285.402 68.3424 289.371 65.0257 292.012 61.0333C294.785 56.9748 296.297 52.5415 296.547 47.7335L326.101 47.3056C326.653 53.7215 325.612 60.0946 322.979 66.4251C320.478 72.6895 316.682 78.5121 311.591 83.893C306.434 89.1399 300.145 93.6119 292.727 97.3091ZM222.907 15.9821C221.83 16.5192 221.393 17.8313 221.932 18.9129C222.471 19.9944 223.782 20.4358 224.859 19.8987L267.787 -1.49606C268.865 -2.03315 269.302 -3.34531 268.763 -4.42685C268.224 -5.50838 266.913 -5.94974 265.835 -5.41265L222.907 15.9821ZM228.276 31.6425C227.737 30.561 228.174 29.2488 229.252 28.7117L272.18 7.31697C273.257 6.77988 274.568 7.22124 275.107 8.30278C275.646 9.38432 275.209 10.6965 274.132 11.2336L231.204 32.6283C230.126 33.1654 228.815 32.724 228.276 31.6425ZM236.084 42.4205C235.006 42.9576 234.57 44.2697 235.109 45.3513C235.648 46.4328 236.958 46.8742 238.036 46.3371L280.964 24.9423C282.042 24.4053 282.478 23.0931 281.939 22.0116C281.4 20.93 280.09 20.4887 279.012 21.0257L236.084 42.4205Z" fill="#F6DBFB"/>
</g>
</svg>
