<svg width="338" height="132" viewBox="0 0 338 132" fill="none" xmlns="http://www.w3.org/2000/svg">
<path d="M191.092 110.685C183.951 110.685 177.753 109.136 172.5 106.04C167.246 102.861 163.183 98.6239 160.31 93.327C157.437 88.03 156 82.1627 156 75.7249C156 69.0426 157.478 63.0938 160.433 57.8783C163.47 52.6629 167.533 48.5476 172.623 45.5324C177.712 42.5173 183.458 41.0097 189.861 41.0097C195.197 41.0097 199.917 41.8653 204.021 43.5766C208.126 45.2065 211.573 47.529 214.364 50.5441C217.237 53.5593 219.413 57.0634 220.89 61.0565C222.368 64.9681 223.107 69.2463 223.107 73.8913C223.107 75.1952 223.025 76.499 222.86 77.8029C222.778 79.0253 222.573 80.0847 222.245 80.9811H171.884V67.535H211.779L203.036 73.8913C203.857 70.3872 203.816 67.2906 202.913 64.6013C202.01 61.8306 200.409 59.6711 198.111 58.1228C195.895 56.493 193.145 55.6781 189.861 55.6781C186.66 55.6781 183.91 56.4522 181.611 58.0006C179.313 59.5489 177.589 61.8306 176.44 64.8458C175.291 67.861 174.839 71.5281 175.085 75.8471C174.757 79.5957 175.209 82.8961 176.44 85.7483C177.671 88.6005 179.559 90.8415 182.104 92.4713C184.649 94.0196 187.727 94.7938 191.339 94.7938C194.622 94.7938 197.413 94.1419 199.712 92.838C202.092 91.5342 203.939 89.7413 205.253 87.4596L220.028 94.4271C218.715 97.6867 216.622 100.539 213.749 102.984C210.958 105.428 207.633 107.343 203.775 108.729C199.917 110.033 195.689 110.685 191.092 110.685Z" fill="black"/>
<path d="M233.983 109.218V16.6846H252.452V109.218H233.983Z" fill="black"/>
<path d="M303.646 110.685C299.049 110.685 294.781 109.87 290.841 108.24C286.982 106.529 283.863 104.043 281.483 100.783L283.206 96.9941V109.218H265.968V16.6846H284.438V55.1891L281.606 51.522C283.822 48.1809 286.818 45.6139 290.594 43.8211C294.452 41.9468 298.844 41.0097 303.769 41.0097C310.172 41.0097 315.959 42.558 321.131 45.6547C326.303 48.7513 330.407 52.9481 333.444 58.245C336.481 63.4605 338 69.3278 338 75.8471C338 82.2849 336.481 88.1523 333.444 93.4492C330.489 98.7461 326.426 102.943 321.254 106.04C316.083 109.136 310.213 110.685 303.646 110.685ZM301.43 94.1826C304.878 94.1826 307.915 93.4085 310.542 91.8601C313.168 90.3118 315.221 88.1523 316.698 85.3816C318.176 82.6109 318.915 79.4327 318.915 75.8471C318.915 72.2615 318.176 69.1241 316.698 66.4349C315.221 63.6642 313.168 61.5047 310.542 59.9563C307.915 58.3265 304.878 57.5116 301.43 57.5116C298.146 57.5116 295.191 58.2858 292.564 59.8341C290.02 61.3824 288.009 63.542 286.531 66.3127C285.136 69.0834 284.438 72.2615 284.438 75.8471C284.438 79.4327 285.136 82.6109 286.531 85.3816C288.009 88.1523 290.02 90.3118 292.564 91.8601C295.191 93.4085 298.146 94.1826 301.43 94.1826Z" fill="black"/>
<path d="M0 25.7587C0 11.5325 11.5326 0 25.7587 0H105.611C119.837 0 131.369 11.5326 131.369 25.7587V105.611C131.369 119.837 119.837 131.369 105.611 131.369H25.7587C11.5325 131.369 0 119.837 0 105.611V25.7587Z" fill="#CB26E6"/>
<path fill-rule="evenodd" clip-rule="evenodd" d="M67.4423 106.053C59.287 106.053 52.2096 104.259 46.2103 100.671C40.211 96.9879 35.5709 92.0775 32.29 85.9396C29.0091 79.8017 27.3687 73.0028 27.3687 65.5428C27.3687 57.7996 29.056 50.9062 32.4306 44.8627C35.8989 38.8192 40.5391 34.0505 46.3509 30.5566C52.1628 27.0628 58.7245 25.3158 66.0362 25.3158C72.1293 25.3158 77.5193 26.3073 82.2063 28.2903C86.8932 30.1789 90.8303 32.8702 94.0175 36.364C97.2983 39.858 99.7824 43.9184 101.47 48.5455C103.157 53.0781 104.001 58.0357 104.001 63.4182C104.001 64.929 103.907 66.4399 103.719 67.9508C103.626 69.3672 103.391 70.5948 103.016 71.6335H49.2454C49.4969 73.6129 49.9851 75.4542 50.7098 77.1577C52.1159 80.4627 54.2719 83.0595 57.1778 84.9481C60.0837 86.7423 63.599 87.6393 67.7235 87.6393C71.4731 87.6393 74.6602 86.8839 77.285 85.3731C80.0034 83.8622 82.1125 81.7847 83.6124 79.1407L100.485 87.2144C98.9856 90.9916 96.5953 94.2966 93.3144 97.1295C90.1273 99.9624 86.3308 102.182 81.925 103.787C77.5193 105.298 72.6917 106.053 67.4423 106.053ZM50.8415 40.4972C50.079 40.4972 49.4608 41.1151 49.4608 41.8773C49.4608 42.6396 50.079 43.2575 50.8415 43.2575H81.2182C81.9808 43.2575 82.599 42.6396 82.599 41.8773C82.599 41.1151 81.9808 40.4972 81.2182 40.4972H50.8415ZM49.4608 50.8486C49.4608 50.0864 50.079 49.4685 50.8415 49.4685H81.2182C81.9808 49.4685 82.599 50.0864 82.599 50.8486C82.599 51.6108 81.9808 52.2288 81.2182 52.2288H50.8415C50.079 52.2288 49.4608 51.6108 49.4608 50.8486ZM50.8415 59.1294C50.079 59.1294 49.4608 59.7473 49.4608 60.5095C49.4608 61.2717 50.079 61.8896 50.8415 61.8896H81.2182C81.9808 61.8896 82.599 61.2717 82.599 60.5095C82.599 59.7473 81.9808 59.1294 81.2182 59.1294H50.8415Z" fill="white"/>
</svg>
