<?xml version="1.0" standalone="no"?>
<!DOCTYPE svg PUBLIC "-//W3C//DTD SVG 20010904//EN"
 "http://www.w3.org/TR/2001/REC-SVG-20010904/DTD/svg10.dtd">
<svg version="1.0" xmlns="http://www.w3.org/2000/svg"
 width="132.000000pt" height="132.000000pt" viewBox="0 0 132.000000 132.000000"
 preserveAspectRatio="xMidYMid meet">
<metadata>
Created by potrace 1.14, written by Peter Selinger 2001-2017
</metadata>
<g transform="translate(0.000000,132.000000) scale(0.100000,-0.100000)"
fill="#000000" stroke="none">
<path d="M175 1308 c-61 -22 -114 -70 -145 -131 l-30 -60 0 -446 c0 -276 4
-460 10 -483 16 -57 69 -119 129 -150 l53 -28 466 0 c451 0 467 1 509 21 54
26 116 96 131 147 9 28 12 174 12 493 l0 454 -24 51 c-13 28 -41 65 -62 82
-74 61 -82 62 -573 61 -289 0 -457 -4 -476 -11z m621 -263 c93 -26 178 -108
215 -206 23 -60 34 -153 25 -203 l-7 -36 -270 0 -270 0 6 -22 c41 -135 203
-180 310 -86 l36 31 63 -27 c101 -43 104 -46 77 -89 -67 -109 -236 -168 -393
-138 -256 50 -388 340 -267 588 82 170 271 245 475 188z"/>
<path d="M500 905 c0 -13 24 -15 159 -15 146 0 197 8 155 24 -9 3 -83 6 -165
6 -126 0 -149 -2 -149 -15z"/>
<path d="M500 815 c0 -13 21 -15 160 -13 216 4 218 22 3 26 -142 2 -163 0
-163 -13z"/>
<path d="M495 720 c-3 -5 0 -12 7 -15 25 -10 318 0 321 10 3 14 -319 19 -328
5z"/>
</g>
</svg>
