<svg width="91" height="76" viewBox="0 0 91 76" fill="none" xmlns="http://www.w3.org/2000/svg">
<path d="M74.7 16.5L41.5 37.125L8.3 16.5V8.25L41.5 28.875L74.7 8.25M74.7 0H8.3C3.6935 0 0 3.67125 0 8.25V57.75C0 59.938 0.874461 62.0365 2.43101 63.5836C3.98757 65.1308 6.0987 66 8.3 66H74.7C76.9013 66 79.0124 65.1308 80.569 63.5836C82.1255 62.0365 83 59.938 83 57.75V8.25C83 6.06196 82.1255 3.96354 80.569 2.41637C79.0124 0.869194 76.9013 0 74.7 0Z" fill="#FFC973"/>
<path d="M61.4541 72.3649C63.6518 74.545 67.2083 74.545 69.406 72.365L87.3454 54.5696C89.5526 52.3801 89.5507 48.8237 87.3447 46.6354C85.1468 44.4551 81.5879 44.4542 79.39 46.6366L65.431 60.4976L61.609 56.6973C59.413 54.5137 55.8543 54.5116 53.6557 56.6926C51.4502 58.8804 51.4466 62.4375 53.6542 64.6274L61.4541 72.3649Z" fill="#FFC973" stroke="#FFF6E6" stroke-width="4"/>
</svg>
