<svg width="132" height="132" viewBox="0 0 132 132" fill="none" xmlns="http://www.w3.org/2000/svg">
<path d="M0 25.7587C0 11.5325 11.5326 0 25.7587 0H105.611C119.837 0 131.369 11.5326 131.369 25.7587V105.611C131.369 119.837 119.837 131.369 105.611 131.369H25.7587C11.5325 131.369 0 119.837 0 105.611V25.7587Z" fill="#CB26E6"/>
<path fill-rule="evenodd" clip-rule="evenodd" d="M67.4423 106.053C59.287 106.053 52.2096 104.259 46.2103 100.671C40.211 96.9879 35.5709 92.0775 32.29 85.9396C29.0091 79.8017 27.3687 73.0028 27.3687 65.5428C27.3687 57.7996 29.056 50.9062 32.4306 44.8627C35.8989 38.8192 40.5391 34.0505 46.3509 30.5566C52.1628 27.0628 58.7245 25.3158 66.0362 25.3158C72.1293 25.3158 77.5193 26.3073 82.2063 28.2903C86.8932 30.1789 90.8303 32.8702 94.0175 36.364C97.2983 39.858 99.7824 43.9184 101.47 48.5455C103.157 53.0781 104.001 58.0357 104.001 63.4182C104.001 64.929 103.907 66.4399 103.719 67.9508C103.626 69.3672 103.391 70.5948 103.016 71.6335H49.2454C49.4969 73.6129 49.9851 75.4542 50.7098 77.1577C52.1159 80.4627 54.2719 83.0595 57.1778 84.9481C60.0837 86.7423 63.599 87.6393 67.7235 87.6393C71.4731 87.6393 74.6602 86.8839 77.285 85.3731C80.0034 83.8622 82.1125 81.7847 83.6124 79.1407L100.485 87.2144C98.9856 90.9916 96.5953 94.2966 93.3144 97.1295C90.1273 99.9624 86.3308 102.182 81.925 103.787C77.5193 105.298 72.6917 106.053 67.4423 106.053ZM50.8415 40.4972C50.079 40.4972 49.4608 41.1151 49.4608 41.8773C49.4608 42.6396 50.079 43.2575 50.8415 43.2575H81.2182C81.9808 43.2575 82.599 42.6396 82.599 41.8773C82.599 41.1151 81.9808 40.4972 81.2182 40.4972H50.8415ZM49.4608 50.8486C49.4608 50.0864 50.079 49.4685 50.8415 49.4685H81.2182C81.9808 49.4685 82.599 50.0864 82.599 50.8486C82.599 51.6108 81.9808 52.2288 81.2182 52.2288H50.8415C50.079 52.2288 49.4608 51.6108 49.4608 50.8486ZM50.8415 59.1294C50.079 59.1294 49.4608 59.7473 49.4608 60.5095C49.4608 61.2717 50.079 61.8896 50.8415 61.8896H81.2182C81.9808 61.8896 82.599 61.2717 82.599 60.5095C82.599 59.7473 81.9808 59.1294 81.2182 59.1294H50.8415Z" fill="white"/>
</svg>
